<?xml version="1.0" encoding="utf-8"?>
<!-- Generator: Adobe Illustrator 19.2.1, SVG Export Plug-In . SVG Version: 6.00 Build 0)  -->
<svg version="1.1" id="Laag_1" xmlns="http://www.w3.org/2000/svg" xmlns:xlink="http://www.w3.org/1999/xlink" x="0px" y="0px"
	 viewBox="0 0 35.1 27.7" style="enable-background:new 0 0 35.1 27.7;" xml:space="preserve">
<style type="text/css">
	.st0{fill:#333333;}
</style>
<path id="hamburger_menu" class="st0" d="M2,0h31.1c1.1,0,2,0.9,2,2v1.5c0,1.1-0.9,2-2,2H2c-1.1,0-2-0.9-2-2V2C0,0.9,0.9,0,2,0z
	 M2,11.1h31.1c1.1,0,2,0.9,2,2v1.5c0,1.1-0.9,2-2,2H2c-1.1,0-2-0.9-2-2v-1.5C0,12,0.9,11.1,2,11.1L2,11.1z M2,22.1h31.1
	c1.1,0,2,0.9,2,2v1.5c0,1.1-0.9,2-2,2H2c-1.1,0-2-0.9-2-2v-1.5C0,23,0.9,22.1,2,22.1z"/>
</svg>
